<mxfile host="65bd71144e">
    <diagram id="1CdT6k1MbIlJ_SFSje_k" name="Page-1">
        <mxGraphModel dx="906" dy="647" grid="1" gridSize="10" guides="1" tooltips="1" connect="1" arrows="1" fold="1" page="0" pageScale="1" pageWidth="827" pageHeight="1169" background="#ffffff" math="0" shadow="0">
            <root>
                <mxCell id="0"/>
                <mxCell id="1" parent="0"/>
                <mxCell id="4" value="&lt;font color=&quot;#000000&quot; style=&quot;font-size: 14px;&quot;&gt;Checks Availability of amount&lt;/font&gt;" style="ellipse;whiteSpace=wrap;html=1;aspect=fixed;fillColor=#FFFFFF;strokeColor=#000000;" parent="1" vertex="1">
                    <mxGeometry x="400" y="480" width="110" height="110" as="geometry"/>
                </mxCell>
                <mxCell id="41" value="" style="edgeStyle=none;html=1;strokeColor=#000000;" parent="1" source="5" target="8" edge="1">
                    <mxGeometry relative="1" as="geometry"/>
                </mxCell>
                <mxCell id="5" value="&lt;font color=&quot;#000000&quot; style=&quot;font-size: 14px;&quot;&gt;Verify pin and Ac.no.&lt;/font&gt;" style="ellipse;whiteSpace=wrap;html=1;aspect=fixed;fillColor=#FFFFFF;strokeColor=#000000;" parent="1" vertex="1">
                    <mxGeometry x="280" y="60" width="110" height="110" as="geometry"/>
                </mxCell>
                <mxCell id="23" style="edgeStyle=none;html=1;entryX=0;entryY=0.5;entryDx=0;entryDy=0;exitX=1;exitY=0.5;exitDx=0;exitDy=0;strokeColor=#000000;" parent="1" source="8" target="16" edge="1">
                    <mxGeometry relative="1" as="geometry"/>
                </mxCell>
                <mxCell id="6" value="&lt;font color=&quot;#000000&quot; style=&quot;font-size: 14px;&quot;&gt;Selects &lt;br&gt;Service&amp;nbsp;&lt;/font&gt;" style="ellipse;whiteSpace=wrap;html=1;aspect=fixed;fillColor=#FFFFFF;strokeColor=#000000;" parent="1" vertex="1">
                    <mxGeometry x="280" y="380" width="110" height="110" as="geometry"/>
                </mxCell>
                <mxCell id="7" value="&lt;font color=&quot;#000000&quot; style=&quot;font-size: 14px;&quot;&gt;Prepare &lt;br&gt;Prinout&lt;/font&gt;" style="ellipse;whiteSpace=wrap;html=1;aspect=fixed;fillColor=#FFFFFF;strokeColor=#000000;" parent="1" vertex="1">
                    <mxGeometry x="500" y="380" width="110" height="110" as="geometry"/>
                </mxCell>
                <mxCell id="8" value="&lt;font color=&quot;#000000&quot; style=&quot;font-size: 14px;&quot;&gt;Display Customer Option&lt;/font&gt;" style="ellipse;whiteSpace=wrap;html=1;aspect=fixed;fillColor=#FFFFFF;strokeColor=#000000;" parent="1" vertex="1">
                    <mxGeometry x="280" y="220" width="110" height="110" as="geometry"/>
                </mxCell>
                <mxCell id="9" value="&lt;font color=&quot;#000000&quot; style=&quot;font-size: 14px;&quot;&gt;Card &lt;br&gt;Reader&lt;/font&gt;" style="rounded=0;whiteSpace=wrap;html=1;fillColor=#FFFFFF;strokeColor=#000000;" parent="1" vertex="1">
                    <mxGeometry x="40" y="100" width="105" height="50" as="geometry"/>
                </mxCell>
                <mxCell id="10" value="&lt;font color=&quot;#000000&quot; style=&quot;font-size: 14px;&quot;&gt;Customer&amp;nbsp;&lt;br&gt;Keypad&lt;/font&gt;" style="rounded=0;whiteSpace=wrap;html=1;fillColor=#FFFFFF;strokeColor=#000000;" parent="1" vertex="1">
                    <mxGeometry x="40" y="250" width="125" height="50" as="geometry"/>
                </mxCell>
                <mxCell id="11" value="&lt;font color=&quot;#000000&quot; style=&quot;font-size: 14px;&quot;&gt;Card Reader&lt;/font&gt;" style="rounded=0;whiteSpace=wrap;html=1;fillColor=#FFFFFF;strokeColor=#000000;" parent="1" vertex="1">
                    <mxGeometry x="500" y="10" width="120" height="50" as="geometry"/>
                </mxCell>
                <mxCell id="12" value="&lt;font color=&quot;#000000&quot; style=&quot;font-size: 14px;&quot;&gt;Cash &lt;br&gt;Dispenser&amp;nbsp;&lt;/font&gt;" style="rounded=0;whiteSpace=wrap;html=1;fillColor=#FFFFFF;strokeColor=#000000;" parent="1" vertex="1">
                    <mxGeometry x="850" y="520" width="140" height="50" as="geometry"/>
                </mxCell>
                <mxCell id="13" value="&lt;font color=&quot;#000000&quot; style=&quot;font-size: 14px;&quot;&gt;Amount Database&lt;/font&gt;" style="rounded=0;whiteSpace=wrap;html=1;strokeColor=#000000;fillColor=#FFFFFF;" parent="1" vertex="1">
                    <mxGeometry x="430" y="660" width="150" height="50" as="geometry"/>
                </mxCell>
                <mxCell id="14" value="&lt;font color=&quot;#000000&quot; style=&quot;font-size: 14px;&quot;&gt;Control System&lt;/font&gt;" style="rounded=0;whiteSpace=wrap;html=1;fillColor=#FFFFFF;strokeColor=#000000;" parent="1" vertex="1">
                    <mxGeometry x="700" y="240" width="120" height="50" as="geometry"/>
                </mxCell>
                <mxCell id="15" value="&lt;font color=&quot;#000000&quot; style=&quot;font-size: 14px;&quot;&gt;Update &lt;br&gt;Database&lt;/font&gt;" style="ellipse;whiteSpace=wrap;html=1;aspect=fixed;fillColor=#FFFFFF;strokeColor=#000000;" parent="1" vertex="1">
                    <mxGeometry x="630" y="490" width="110" height="110" as="geometry"/>
                </mxCell>
                <mxCell id="16" value="&lt;font color=&quot;#000000&quot; style=&quot;font-size: 14px;&quot;&gt;Screen&lt;/font&gt;" style="rounded=0;whiteSpace=wrap;html=1;fillColor=#FFFFFF;strokeColor=#000000;" parent="1" vertex="1">
                    <mxGeometry x="700" y="120" width="83" height="50" as="geometry"/>
                </mxCell>
                <mxCell id="17" value="&lt;font color=&quot;#000000&quot; style=&quot;font-size: 14px;&quot;&gt;Prinout&lt;br&gt;Dispenser&amp;nbsp;&amp;nbsp;&lt;/font&gt;" style="rounded=0;whiteSpace=wrap;html=1;fillColor=#FFFFFF;strokeColor=#000000;" parent="1" vertex="1">
                    <mxGeometry x="700" y="410" width="106" height="50" as="geometry"/>
                </mxCell>
                <mxCell id="18" value="" style="edgeStyle=none;orthogonalLoop=1;jettySize=auto;html=1;endArrow=classic;startArrow=classic;endSize=8;startSize=8;entryX=0;entryY=0.5;entryDx=0;entryDy=0;strokeColor=#000000;" parent="1" source="6" target="14" edge="1">
                    <mxGeometry width="100" relative="1" as="geometry">
                        <mxPoint x="120" y="390" as="sourcePoint"/>
                        <mxPoint x="220" y="390" as="targetPoint"/>
                        <Array as="points"/>
                    </mxGeometry>
                </mxCell>
                <mxCell id="19" value="" style="edgeStyle=none;orthogonalLoop=1;jettySize=auto;html=1;endArrow=classic;startArrow=classic;endSize=8;startSize=8;entryX=0.018;entryY=0.573;entryDx=0;entryDy=0;exitX=1;exitY=0.5;exitDx=0;exitDy=0;entryPerimeter=0;strokeColor=#000000;" parent="1" source="9" target="5" edge="1">
                    <mxGeometry width="100" relative="1" as="geometry">
                        <mxPoint y="420" as="sourcePoint"/>
                        <mxPoint x="100" y="420" as="targetPoint"/>
                        <Array as="points"/>
                    </mxGeometry>
                </mxCell>
                <mxCell id="20" value="" style="edgeStyle=none;orthogonalLoop=1;jettySize=auto;html=1;entryX=0.336;entryY=0.973;entryDx=0;entryDy=0;entryPerimeter=0;exitX=1;exitY=0.25;exitDx=0;exitDy=0;strokeColor=#000000;" parent="1" source="10" target="5" edge="1">
                    <mxGeometry width="100" relative="1" as="geometry">
                        <mxPoint x="180" y="260" as="sourcePoint"/>
                        <mxPoint x="160" y="380" as="targetPoint"/>
                        <Array as="points"/>
                    </mxGeometry>
                </mxCell>
                <mxCell id="21" value="" style="edgeStyle=none;orthogonalLoop=1;jettySize=auto;html=1;exitX=1;exitY=0.5;exitDx=0;exitDy=0;entryX=0;entryY=0.5;entryDx=0;entryDy=0;strokeColor=#000000;" parent="1" source="10" target="8" edge="1">
                    <mxGeometry width="100" relative="1" as="geometry">
                        <mxPoint x="120" y="480" as="sourcePoint"/>
                        <mxPoint x="280" y="255" as="targetPoint"/>
                        <Array as="points"/>
                    </mxGeometry>
                </mxCell>
                <mxCell id="27" value="" style="edgeStyle=none;orthogonalLoop=1;jettySize=auto;html=1;entryX=0;entryY=0.5;entryDx=0;entryDy=0;exitX=1;exitY=0.5;exitDx=0;exitDy=0;strokeColor=#000000;" parent="1" source="6" target="7" edge="1">
                    <mxGeometry width="100" relative="1" as="geometry">
                        <mxPoint x="100" y="490" as="sourcePoint"/>
                        <mxPoint x="200" y="490" as="targetPoint"/>
                        <Array as="points"/>
                    </mxGeometry>
                </mxCell>
                <mxCell id="29" value="" style="edgeStyle=none;orthogonalLoop=1;jettySize=auto;html=1;exitX=1;exitY=0.5;exitDx=0;exitDy=0;strokeColor=#000000;" parent="1" source="7" target="17" edge="1">
                    <mxGeometry width="100" relative="1" as="geometry">
                        <mxPoint x="90" y="520" as="sourcePoint"/>
                        <mxPoint x="190" y="520" as="targetPoint"/>
                        <Array as="points"/>
                    </mxGeometry>
                </mxCell>
                <mxCell id="35" value="" style="edgeStyle=none;orthogonalLoop=1;jettySize=auto;html=1;entryX=0;entryY=0.545;entryDx=0;entryDy=0;entryPerimeter=0;strokeColor=#000000;" parent="1" target="15" edge="1">
                    <mxGeometry width="100" relative="1" as="geometry">
                        <mxPoint x="510" y="550" as="sourcePoint"/>
                        <mxPoint x="220" y="550" as="targetPoint"/>
                        <Array as="points"/>
                    </mxGeometry>
                </mxCell>
                <mxCell id="36" value="" style="edgeStyle=none;orthogonalLoop=1;jettySize=auto;html=1;entryX=0;entryY=0.5;entryDx=0;entryDy=0;exitX=1;exitY=0.5;exitDx=0;exitDy=0;strokeColor=#000000;" parent="1" source="15" target="12" edge="1">
                    <mxGeometry width="100" relative="1" as="geometry">
                        <mxPoint x="740" y="550" as="sourcePoint"/>
                        <mxPoint x="370" y="580" as="targetPoint"/>
                        <Array as="points"/>
                    </mxGeometry>
                </mxCell>
                <mxCell id="42" value="" style="edgeStyle=none;orthogonalLoop=1;jettySize=auto;html=1;exitX=0.5;exitY=1;exitDx=0;exitDy=0;entryX=0.5;entryY=0;entryDx=0;entryDy=0;strokeColor=#000000;" parent="1" source="8" target="6" edge="1">
                    <mxGeometry width="100" relative="1" as="geometry">
                        <mxPoint x="280" y="350" as="sourcePoint"/>
                        <mxPoint x="380" y="350" as="targetPoint"/>
                        <Array as="points"/>
                    </mxGeometry>
                </mxCell>
                <mxCell id="43" value="" style="edgeStyle=none;orthogonalLoop=1;jettySize=auto;html=1;endArrow=classic;startArrow=classic;endSize=8;startSize=8;entryX=0.355;entryY=0.982;entryDx=0;entryDy=0;entryPerimeter=0;exitX=1;exitY=0.5;exitDx=0;exitDy=0;strokeColor=#000000;" parent="1" source="13" target="15" edge="1">
                    <mxGeometry width="100" relative="1" as="geometry">
                        <mxPoint x="100" y="500" as="sourcePoint"/>
                        <mxPoint x="200" y="500" as="targetPoint"/>
                        <Array as="points"/>
                    </mxGeometry>
                </mxCell>
                <mxCell id="45" value="" style="edgeStyle=none;orthogonalLoop=1;jettySize=auto;html=1;endArrow=classic;startArrow=classic;endSize=8;startSize=8;exitX=0.5;exitY=1;exitDx=0;exitDy=0;entryX=0.16;entryY=0.02;entryDx=0;entryDy=0;entryPerimeter=0;strokeColor=#000000;" parent="1" source="4" target="13" edge="1">
                    <mxGeometry width="100" relative="1" as="geometry">
                        <mxPoint x="380" y="620" as="sourcePoint"/>
                        <mxPoint x="480" y="620" as="targetPoint"/>
                        <Array as="points"/>
                    </mxGeometry>
                </mxCell>
                <mxCell id="49" value="" style="edgeStyle=segmentEdgeStyle;endArrow=classic;html=1;curved=0;rounded=0;endSize=8;startSize=8;exitX=0.5;exitY=1;exitDx=0;exitDy=0;strokeColor=#000000;" parent="1" source="6" target="4" edge="1">
                    <mxGeometry width="50" height="50" relative="1" as="geometry">
                        <mxPoint x="540" y="360" as="sourcePoint"/>
                        <mxPoint x="590" y="310" as="targetPoint"/>
                        <Array as="points">
                            <mxPoint x="335" y="510"/>
                            <mxPoint x="320" y="510"/>
                            <mxPoint x="320" y="554"/>
                        </Array>
                    </mxGeometry>
                </mxCell>
                <mxCell id="50" value="" style="edgeStyle=segmentEdgeStyle;endArrow=classic;html=1;curved=0;rounded=0;endSize=8;startSize=8;entryX=0;entryY=0.5;entryDx=0;entryDy=0;exitX=0.5;exitY=0;exitDx=0;exitDy=0;strokeColor=#000000;" parent="1" source="5" target="11" edge="1">
                    <mxGeometry width="50" height="50" relative="1" as="geometry">
                        <mxPoint x="330" y="50" as="sourcePoint"/>
                        <mxPoint x="590" y="310" as="targetPoint"/>
                        <Array as="points">
                            <mxPoint x="330" y="60"/>
                            <mxPoint x="330" y="35"/>
                        </Array>
                    </mxGeometry>
                </mxCell>
                <mxCell id="52" value="&lt;font color=&quot;#000000&quot; style=&quot;font-size: 14px;&quot;&gt;Ac.no.and Pin&lt;/font&gt;" style="text;html=1;align=center;verticalAlign=middle;resizable=0;points=[];autosize=1;strokeColor=none;fillColor=none;" parent="1" vertex="1">
                    <mxGeometry x="159" y="100" width="105" height="29" as="geometry"/>
                </mxCell>
                <mxCell id="54" value="&lt;font color=&quot;#000000&quot; style=&quot;font-size: 14px;&quot;&gt;Ac.no.&lt;br&gt;&amp;nbsp;and Pin&lt;/font&gt;" style="text;html=1;align=center;verticalAlign=middle;resizable=0;points=[];autosize=1;strokeColor=none;fillColor=none;rotation=0;" parent="1" vertex="1">
                    <mxGeometry x="166" y="187" width="69" height="46" as="geometry"/>
                </mxCell>
                <mxCell id="55" value="&lt;font color=&quot;#000000&quot; style=&quot;font-size: 14px;&quot;&gt;Command&lt;/font&gt;" style="text;html=1;align=center;verticalAlign=middle;resizable=0;points=[];autosize=1;strokeColor=none;fillColor=none;" parent="1" vertex="1">
                    <mxGeometry x="185" y="248" width="83" height="29" as="geometry"/>
                </mxCell>
                <mxCell id="56" value="&lt;font color=&quot;#000000&quot; style=&quot;font-size: 14px;&quot;&gt;for service&lt;br&gt;selection&lt;/font&gt;" style="text;html=1;align=center;verticalAlign=middle;resizable=0;points=[];autosize=1;strokeColor=none;fillColor=none;" parent="1" vertex="1">
                    <mxGeometry x="181" y="277" width="83" height="46" as="geometry"/>
                </mxCell>
                <mxCell id="57" value="&lt;font color=&quot;#000000&quot; style=&quot;font-size: 14px;&quot;&gt;Invalid&lt;/font&gt;" style="text;html=1;align=center;verticalAlign=middle;resizable=0;points=[];autosize=1;strokeColor=none;fillColor=none;" parent="1" vertex="1">
                    <mxGeometry x="391" y="6" width="58" height="29" as="geometry"/>
                </mxCell>
                <mxCell id="59" value="&lt;font color=&quot;#000000&quot; style=&quot;font-size: 14px;&quot;&gt;returns card&lt;/font&gt;" style="text;html=1;align=center;verticalAlign=middle;resizable=0;points=[];autosize=1;strokeColor=none;fillColor=none;" parent="1" vertex="1">
                    <mxGeometry x="374" y="46" width="93" height="29" as="geometry"/>
                </mxCell>
                <mxCell id="60" value="&lt;font color=&quot;#000000&quot; style=&quot;font-size: 14px;&quot;&gt;On validity&lt;br&gt;of card&lt;/font&gt;" style="text;html=1;align=center;verticalAlign=middle;resizable=0;points=[];autosize=1;strokeColor=none;fillColor=none;" parent="1" vertex="1">
                    <mxGeometry x="330" y="177" width="83" height="46" as="geometry"/>
                </mxCell>
                <mxCell id="61" value="&lt;font color=&quot;#000000&quot; style=&quot;font-size: 14px;&quot;&gt;Balance&lt;/font&gt;" style="text;html=1;align=center;verticalAlign=middle;resizable=0;points=[];autosize=1;strokeColor=none;fillColor=none;" parent="1" vertex="1">
                    <mxGeometry x="416" y="406" width="69" height="29" as="geometry"/>
                </mxCell>
                <mxCell id="63" value="&lt;font color=&quot;#000000&quot; style=&quot;font-size: 14px;&quot;&gt;Enquiry&lt;/font&gt;" style="text;html=1;align=center;verticalAlign=middle;resizable=0;points=[];autosize=1;strokeColor=none;fillColor=none;" parent="1" vertex="1">
                    <mxGeometry x="413" y="436" width="65" height="29" as="geometry"/>
                </mxCell>
                <mxCell id="65" value="&lt;font color=&quot;#000000&quot; style=&quot;font-size: 14px;&quot;&gt;Account info.&lt;/font&gt;" style="text;html=1;align=center;verticalAlign=middle;resizable=0;points=[];autosize=1;strokeColor=none;fillColor=none;rotation=0;" parent="1" vertex="1">
                    <mxGeometry x="456" y="616" width="99" height="29" as="geometry"/>
                </mxCell>
                <mxCell id="67" value="&lt;font color=&quot;#000000&quot; style=&quot;font-size: 14px;&quot;&gt;Request&lt;/font&gt;" style="text;html=1;align=center;verticalAlign=middle;resizable=0;points=[];autosize=1;strokeColor=none;fillColor=none;" parent="1" vertex="1">
                    <mxGeometry x="324" y="531" width="70" height="29" as="geometry"/>
                </mxCell>
                <mxCell id="70" value="&lt;font color=&quot;#000000&quot; style=&quot;font-size: 14px;&quot;&gt;for withdrawal&lt;/font&gt;" style="text;html=1;align=center;verticalAlign=middle;resizable=0;points=[];autosize=1;strokeColor=none;fillColor=none;" parent="1" vertex="1">
                    <mxGeometry x="307" y="556" width="104" height="29" as="geometry"/>
                </mxCell>
                <mxCell id="71" value="&lt;font color=&quot;#000000&quot; style=&quot;font-size: 14px;&quot;&gt;Cash&lt;/font&gt;" style="text;html=1;align=center;verticalAlign=middle;resizable=0;points=[];autosize=1;strokeColor=none;fillColor=none;" parent="1" vertex="1">
                    <mxGeometry x="755" y="521" width="51" height="29" as="geometry"/>
                </mxCell>
                <mxCell id="72" value="&lt;font color=&quot;#000000&quot; style=&quot;font-size: 14px;&quot;&gt;Details&lt;/font&gt;" style="text;html=1;align=center;verticalAlign=middle;resizable=0;points=[];autosize=1;strokeColor=none;fillColor=none;" parent="1" vertex="1">
                    <mxGeometry x="755" y="551" width="61" height="29" as="geometry"/>
                </mxCell>
                <mxCell id="76" value="&lt;font style=&quot;font-size: 24px;&quot;&gt;LEVEL 1 DFD&lt;/font&gt;" style="text;html=1;align=center;verticalAlign=middle;resizable=0;points=[];autosize=1;strokeColor=none;fillColor=none;fontSize=14;fontColor=#000000;" parent="1" vertex="1">
                    <mxGeometry x="422" y="764" width="168" height="41" as="geometry"/>
                </mxCell>
                <mxCell id="77" value="&lt;span style=&quot;font-weight: normal;&quot;&gt;DFD OF ATM SYSTEM&lt;/span&gt;" style="text;html=1;align=center;verticalAlign=middle;resizable=0;points=[];autosize=1;strokeColor=none;fillColor=none;fontSize=24;fontColor=#000000;fontStyle=1" parent="1" vertex="1">
                    <mxGeometry x="375" y="817" width="267" height="41" as="geometry"/>
                </mxCell>
                <mxCell id="78" value="Conclusion:&lt;br&gt;" style="text;html=1;align=center;verticalAlign=middle;resizable=0;points=[];autosize=1;strokeColor=none;fillColor=none;fontSize=24;fontColor=#000000;" parent="1" vertex="1">
                    <mxGeometry x="187" y="891" width="143" height="41" as="geometry"/>
                </mxCell>
                <mxCell id="80" value="Using drawio we constructed use case diagram and DFD of ATM system" style="text;html=1;align=center;verticalAlign=middle;resizable=0;points=[];autosize=1;strokeColor=none;fillColor=none;fontSize=24;fontColor=#000000;" parent="1" vertex="1">
                    <mxGeometry x="187" y="932" width="787" height="41" as="geometry"/>
                </mxCell>
            </root>
        </mxGraphModel>
    </diagram>
</mxfile>